<?xml version="1.0"?>
<svg xmlns="http://www.w3.org/2000/svg" height="512px" viewBox="0 -41 512 512" width="512px"><path d="m297.242188 163.25c-8.285157 0-15-6.714844-15-15v-148.25h-52.484376v148.25c0 8.285156-6.714843 15-15 15h-214.757812v52.484375h214.757812c8.285157 0 15 6.714844 15 15v148.210937h52.484376v-148.210937c0-8.285156 6.714843-15 15-15h214.757812v-52.484375zm0 0" fill="#FFFFFF"/><path d="m312.242188 112.039062 110.8125-110.8125c-5.234376-.808593-10.597657-1.226562-16.054688-1.226562h-94.757812zm0 0" fill="#FFFFFF"/><path d="m333.453125 133.25h178.546875v-28.25c0-40.59375-23.15625-75.875-56.949219-93.34375zm0 0" fill="#FFFFFF"/><path d="m333.394531 245.734375 121.320313 121.730469c33.976562-17.40625 57.285156-52.792969 57.285156-93.519532v-28.210937zm0 0" fill="#FFFFFF"/><path d="m199.757812 112.039062v-112.039062h-94.757812c-5.457031 0-10.820312.417969-16.054688 1.226562zm0 0" fill="#FFFFFF"/><path d="m312.242188 267.007812v111.9375h94.757812c5.316406 0 10.539062-.398437 15.640625-1.164062zm0 0" fill="#FFFFFF"/><path d="m178.546875 133.25-121.597656-121.59375c-33.792969 17.464844-56.949219 52.75-56.949219 93.34375v28.25zm0 0" fill="#FFFFFF"/><path d="m178.546875 245.734375h-178.546875v28.210937c0 40.605469 23.167969 75.894532 56.976562 93.359376zm0 0" fill="#FFFFFF"/><path d="m199.757812 266.949219-110.777343 110.777343c5.222656.800782 10.574219 1.21875 16.019531 1.21875h15.582031l36.519531 46.332032c2.847657 3.609375 7.1875 5.714844 11.78125 5.714844s8.9375-2.105469 11.78125-5.714844l19.09375-24.222656zm0 0" fill="#FFFFFF"/></svg>
