<?xml version="1.0"?>
<svg xmlns="http://www.w3.org/2000/svg" height="512px" viewBox="0 0 512 512" width="512px"><path d="m0 0h210v130h-210zm0 0" fill="#FFFFFF"/><path d="m60 160v5c0 13.785156-11.214844 25-25 25v30h140v-30c-13.785156 0-25-11.214844-25-25v-5zm0 0" fill="#FFFFFF"/><path d="m302 0v60h-62v30h62v40h210v-130zm0 0" fill="#FFFFFF"/><path d="m452 165v-5h-90v5c0 13.785156-11.214844 25-25 25v30h140v-30c-13.785156 0-25-11.214844-25-25zm0 0" fill="#FFFFFF"/><path d="m150 457v-5h-90v5c0 13.785156-11.214844 25-25 25v30h140v-30c-13.785156 0-25-11.214844-25-25zm0 0" fill="#FFFFFF"/><path d="m120 250h-30v42h-90v130h210v-130h-90zm0 0" fill="#FFFFFF"/><path d="m271 445c0 8.285156-6.714844 15-15 15s-15-6.714844-15-15 6.714844-15 15-15 15 6.714844 15 15zm0 0" fill="#FFFFFF"/><path d="m331 445c0 8.285156-6.714844 15-15 15s-15-6.714844-15-15 6.714844-15 15-15 15 6.714844 15 15zm0 0" fill="#FFFFFF"/><path d="m451 445c0 8.285156-6.714844 15-15 15s-15-6.714844-15-15 6.714844-15 15-15 15 6.714844 15 15zm0 0" fill="#FFFFFF"/><path d="m451 325c0 8.285156-6.714844 15-15 15s-15-6.714844-15-15 6.714844-15 15-15 15 6.714844 15 15zm0 0" fill="#FFFFFF"/><path d="m451 265c0 8.285156-6.714844 15-15 15s-15-6.714844-15-15 6.714844-15 15-15 15 6.714844 15 15zm0 0" fill="#FFFFFF"/><path d="m391 445c0 8.285156-6.714844 15-15 15s-15-6.714844-15-15 6.714844-15 15-15 15 6.714844 15 15zm0 0" fill="#FFFFFF"/><path d="m451 385c0 8.285156-6.714844 15-15 15s-15-6.714844-15-15 6.714844-15 15-15 15 6.714844 15 15zm0 0" fill="#FFFFFF"/></svg>
